Genre:Action | Crime
Language:English
 
http://www.imdb.com/title/tt1416801/

Source:BluRay
Subtitles:Romana

Format : MPEG-4
Format profile : Base Media
Codec ID : isom
File size : 2.50 GiB
Duration : 1h 46mn
Overall bit rate : 3 359 Kbps

Video
Format profile : High@L4.1
Format settings, CABAC : Yes
Format settings, ReFrames : 3 frames
Codec ID : avc1
Codec ID/Info : Advanced Video Coding
Duration : 1h 46mn
Bit rate mode : Variable
Bit rate : 3 000 Kbps
Maximum bit rate : 19.5 Mbps
Width : 1 280 pixels
Height : 720 pixels
Display aspect ratio : 16:9
Frame rate mode : Constant
Frame rate : 23.976 fps
Color space : YUV
Chroma subsampling : 4:2:0
Bit depth : 8 bits
Scan type : Progressive
Bits/(Pixel*Frame) : 0.136
Stream size : 2.17 GiB (87%)
Writing library : x264

Audio
ID : 2
Format : AAC
Format/Info : Advanced Audio Codec
Format version : Version 4
Format profile : LC
Format settings, SBR : No
Codec ID : 40
Duration : 1h 46mn
Bit rate mode : Variable
Bit rate : 444 Kbps
Maximum bit rate : 547 Kbps
Channel(s) : 6 channels
Channel positions : Front: L C R, Side: L R, LFE
Sampling rate : 48.0 KHz
Stream size : 338 MiB (13%)


Plot:
The true story of Danny Greene, a tough Irish thug working for mobsters in Cleveland during the 1970's.
 
http://shareimage.org/images/agwwm58gzcpe5nli4qnt.png
 
http://shareimage.org/images/pt7e4vvnb82ty17bnu.png
 
http://shareimage.org/images/o44f9y9lmgbuljhbywnn.png
 
http://shareimage.org/images/iu66ogcolch82z4sadtr.png
